<?xml version="1.0" encoding="UTF-8"?>
<!DOCTYPE svg PUBLIC "-//W3C//DTD SVG 1.1//EN" "http://www.w3.org/Graphics/SVG/1.1/DTD/svg11.dtd">
<svg version="1.1" xmlns="http://www.w3.org/2000/svg" xmlns:xlink="http://www.w3.org/1999/xlink" x="0px" y="0px" width="1200" height="180" viewBox="0, 0, 1200, 180">
  <g id="Background">
    <rect x="0" y="0" width="1200" height="180" fill="#000000" fill-opacity="0"/>
  </g>
  <g id="Layer 1">
    <path d="M15.5,15.5 L45.5,15.5 L45.5,45.5 L15.5,45.5 z" fill-opacity="0" stroke="#737370" stroke-width="2"/>
    <path d="M15.5,45.5 L45.5,45.5 L45.5,75.5 L15.5,75.5 z" fill-opacity="0" stroke="#737370" stroke-width="2"/>
    <path d="M15.5,75.5 L45.5,75.5 L45.5,105.5 L15.5,105.5 z" fill-opacity="0" stroke="#737370" stroke-width="2"/>
    <path d="M15.5,105.5 L45.5,105.5 L45.5,135.5 L15.5,135.5 z" fill-opacity="0" stroke="#737370" stroke-width="2"/>
    <path d="M15.5,135.5 L45.5,135.5 L45.5,165.5 L15.5,165.5 z" fill-opacity="0" stroke="#737370" stroke-width="2"/>
    <path d="M45.5,15.5 L75.5,15.5 L75.5,45.5 L45.5,45.5 z" fill-opacity="0" stroke="#737370" stroke-width="2"/>
    <path d="M45.5,45.5 L75.5,45.5 L75.5,75.5 L45.5,75.5 z" fill-opacity="0" stroke="#737370" stroke-width="2"/>
    <path d="M45.5,75.5 L75.5,75.5 L75.5,105.5 L45.5,105.5 z" fill-opacity="0" stroke="#737370" stroke-width="2"/>
    <path d="M45.5,105.5 L75.5,105.5 L75.5,135.5 L45.5,135.5 z" fill-opacity="0" stroke="#737370" stroke-width="2"/>
    <path d="M45.5,135.5 L75.5,135.5 L75.5,165.5 L45.5,165.5 z" fill-opacity="0" stroke="#737370" stroke-width="2"/>
    <path d="M75.5,15.5 L105.5,15.5 L105.5,45.5 L75.5,45.5 z" fill-opacity="0" stroke="#737370" stroke-width="2"/>
    <path d="M75.5,45.5 L105.5,45.5 L105.5,75.5 L75.5,75.5 z" fill-opacity="0" stroke="#737370" stroke-width="2"/>
    <path d="M75.5,75.5 L105.5,75.5 L105.5,105.5 L75.5,105.5 z" fill-opacity="0" stroke="#737370" stroke-width="2"/>
    <path d="M75.5,105.5 L105.5,105.5 L105.5,135.5 L75.5,135.5 z" fill-opacity="0" stroke="#737370" stroke-width="2"/>
    <path d="M75.5,135.5 L105.5,135.5 L105.5,165.5 L75.5,165.5 z" fill-opacity="0" stroke="#737370" stroke-width="2"/>
    <path d="M105.5,15.5 L135.5,15.5 L135.5,45.5 L105.5,45.5 z" fill-opacity="0" stroke="#737370" stroke-width="2"/>
    <path d="M105.5,45.5 L135.5,45.5 L135.5,75.5 L105.5,75.5 z" fill-opacity="0" stroke="#737370" stroke-width="2"/>
    <path d="M105.5,75.5 L135.5,75.5 L135.5,105.5 L105.5,105.5 z" fill-opacity="0" stroke="#737370" stroke-width="2"/>
    <path d="M105.5,105.5 L135.5,105.5 L135.5,135.5 L105.5,135.5 z" fill-opacity="0" stroke="#737370" stroke-width="2"/>
    <path d="M105.5,135.5 L135.5,135.5 L135.5,165.5 L105.5,165.5 z" fill-opacity="0" stroke="#737370" stroke-width="2"/>
    <path d="M135.5,15.5 L165.5,15.5 L165.5,45.5 L135.5,45.5 z" fill-opacity="0" stroke="#737370" stroke-width="2"/>
    <path d="M135.5,45.5 L165.5,45.5 L165.5,75.5 L135.5,75.5 z" fill-opacity="0" stroke="#737370" stroke-width="2"/>
    <path d="M135.5,75.5 L165.5,75.5 L165.5,105.5 L135.5,105.5 z" fill-opacity="0" stroke="#737370" stroke-width="2"/>
    <path d="M135.5,105.5 L165.5,105.5 L165.5,135.5 L135.5,135.5 z" fill-opacity="0" stroke="#737370" stroke-width="2"/>
    <path d="M135.5,135.5 L165.5,135.5 L165.5,165.5 L135.5,165.5 z" fill-opacity="0" stroke="#737370" stroke-width="2"/>
    <path d="M165.5,15.5 L195.5,15.5 L195.5,45.5 L165.5,45.5 z" fill-opacity="0" stroke="#737370" stroke-width="2"/>
    <path d="M165.5,45.5 L195.5,45.5 L195.5,75.5 L165.5,75.5 z" fill-opacity="0" stroke="#737370" stroke-width="2"/>
    <path d="M165.5,75.5 L195.5,75.5 L195.5,105.5 L165.5,105.5 z" fill-opacity="0" stroke="#737370" stroke-width="2"/>
    <path d="M165.5,105.5 L195.5,105.5 L195.5,135.5 L165.5,135.5 z" fill-opacity="0" stroke="#737370" stroke-width="2"/>
    <path d="M165.5,135.5 L195.5,135.5 L195.5,165.5 L165.5,165.5 z" fill-opacity="0" stroke="#737370" stroke-width="2"/>
    <path d="M195.5,15.5 L225.5,15.5 L225.5,45.5 L195.5,45.5 z" fill-opacity="0" stroke="#737370" stroke-width="2"/>
    <path d="M195.5,45.5 L225.5,45.5 L225.5,75.5 L195.5,75.5 z" fill-opacity="0" stroke="#737370" stroke-width="2"/>
    <path d="M195.5,75.5 L225.5,75.5 L225.5,105.5 L195.5,105.5 z" fill-opacity="0" stroke="#737370" stroke-width="2"/>
    <path d="M195.5,105.5 L225.5,105.5 L225.5,135.5 L195.5,135.5 z" fill-opacity="0" stroke="#737370" stroke-width="2"/>
    <path d="M195.5,135.5 L225.5,135.5 L225.5,165.5 L195.5,165.5 z" fill-opacity="0" stroke="#737370" stroke-width="2"/>
    <path d="M225.5,15.5 L255.5,15.5 L255.5,45.5 L225.5,45.5 z" fill-opacity="0" stroke="#737370" stroke-width="2"/>
    <path d="M225.5,45.5 L255.5,45.5 L255.5,75.5 L225.5,75.5 z" fill-opacity="0" stroke="#737370" stroke-width="2"/>
    <path d="M225.5,75.5 L255.5,75.5 L255.5,105.5 L225.5,105.5 z" fill-opacity="0" stroke="#737370" stroke-width="2"/>
    <path d="M225.5,105.5 L255.5,105.5 L255.5,135.5 L225.5,135.5 z" fill-opacity="0" stroke="#737370" stroke-width="2"/>
    <path d="M225.5,135.5 L255.5,135.5 L255.5,165.5 L225.5,165.5 z" fill-opacity="0" stroke="#737370" stroke-width="2"/>
    <path d="M255.5,15.5 L285.5,15.5 L285.5,45.5 L255.5,45.5 z" fill-opacity="0" stroke="#737370" stroke-width="2"/>
    <path d="M255.5,45.5 L285.5,45.5 L285.5,75.5 L255.5,75.5 z" fill-opacity="0" stroke="#737370" stroke-width="2"/>
    <path d="M255.5,75.5 L285.5,75.5 L285.5,105.5 L255.5,105.5 z" fill-opacity="0" stroke="#737370" stroke-width="2"/>
    <path d="M255.5,105.5 L285.5,105.5 L285.5,135.5 L255.5,135.5 z" fill-opacity="0" stroke="#737370" stroke-width="2"/>
    <path d="M255.5,135.5 L285.5,135.5 L285.5,165.5 L255.5,165.5 z" fill-opacity="0" stroke="#737370" stroke-width="2"/>
    <path d="M285.5,15.5 L315.5,15.5 L315.5,45.5 L285.5,45.5 z" fill-opacity="0" stroke="#737370" stroke-width="2"/>
    <path d="M285.5,45.5 L315.5,45.5 L315.5,75.5 L285.5,75.5 z" fill-opacity="0" stroke="#737370" stroke-width="2"/>
    <path d="M285.5,75.5 L315.5,75.5 L315.5,105.5 L285.5,105.5 z" fill-opacity="0" stroke="#737370" stroke-width="2"/>
    <path d="M285.5,105.5 L315.5,105.5 L315.5,135.5 L285.5,135.5 z" fill-opacity="0" stroke="#737370" stroke-width="2"/>
    <path d="M285.5,135.5 L315.5,135.5 L315.5,165.5 L285.5,165.5 z" fill-opacity="0" stroke="#737370" stroke-width="2"/>
    <path d="M315.5,15.5 L345.5,15.5 L345.5,45.5 L315.5,45.5 z" fill-opacity="0" stroke="#737370" stroke-width="2"/>
    <path d="M315.5,45.5 L345.5,45.5 L345.5,75.5 L315.5,75.5 z" fill-opacity="0" stroke="#737370" stroke-width="2"/>
    <path d="M315.5,75.5 L345.5,75.5 L345.5,105.5 L315.5,105.5 z" fill-opacity="0" stroke="#737370" stroke-width="2"/>
    <path d="M315.5,105.5 L345.5,105.5 L345.5,135.5 L315.5,135.5 z" fill-opacity="0" stroke="#737370" stroke-width="2"/>
    <path d="M315.5,135.5 L345.5,135.5 L345.5,165.5 L315.5,165.5 z" fill-opacity="0" stroke="#737370" stroke-width="2"/>
    <path d="M345.5,15.5 L375.5,15.5 L375.5,45.5 L345.5,45.5 z" fill-opacity="0" stroke="#737370" stroke-width="2"/>
    <path d="M345.5,45.5 L375.5,45.5 L375.5,75.5 L345.5,75.5 z" fill-opacity="0" stroke="#737370" stroke-width="2"/>
    <path d="M345.5,75.5 L375.5,75.5 L375.5,105.5 L345.5,105.5 z" fill-opacity="0" stroke="#737370" stroke-width="2"/>
    <path d="M345.5,105.5 L375.5,105.5 L375.5,135.5 L345.5,135.5 z" fill-opacity="0" stroke="#737370" stroke-width="2"/>
    <path d="M345.5,135.5 L375.5,135.5 L375.5,165.5 L345.5,165.5 z" fill-opacity="0" stroke="#737370" stroke-width="2"/>
    <path d="M375.5,15.5 L405.5,15.5 L405.5,45.5 L375.5,45.5 z" fill-opacity="0" stroke="#737370" stroke-width="2"/>
    <path d="M375.5,45.5 L405.5,45.5 L405.5,75.5 L375.5,75.5 z" fill-opacity="0" stroke="#737370" stroke-width="2"/>
    <path d="M375.5,75.5 L405.5,75.5 L405.5,105.5 L375.5,105.5 z" fill-opacity="0" stroke="#737370" stroke-width="2"/>
    <path d="M375.5,105.5 L405.5,105.5 L405.5,135.5 L375.5,135.5 z" fill-opacity="0" stroke="#737370" stroke-width="2"/>
    <path d="M375.5,135.5 L405.5,135.5 L405.5,165.5 L375.5,165.5 z" fill-opacity="0" stroke="#737370" stroke-width="2"/>
    <path d="M405.5,15.5 L435.5,15.5 L435.5,45.5 L405.5,45.5 z" fill-opacity="0" stroke="#737370" stroke-width="2"/>
    <path d="M405.5,45.5 L435.5,45.5 L435.5,75.5 L405.5,75.5 z" fill-opacity="0" stroke="#737370" stroke-width="2"/>
    <path d="M405.5,75.5 L435.5,75.5 L435.5,105.5 L405.5,105.5 z" fill-opacity="0" stroke="#737370" stroke-width="2"/>
    <path d="M405.5,105.5 L435.5,105.5 L435.5,135.5 L405.5,135.5 z" fill-opacity="0" stroke="#737370" stroke-width="2"/>
    <path d="M405.5,135.5 L435.5,135.5 L435.5,165.5 L405.5,165.5 z" fill-opacity="0" stroke="#737370" stroke-width="2"/>
    <path d="M435.5,15.5 L465.5,15.5 L465.5,45.5 L435.5,45.5 z" fill-opacity="0" stroke="#737370" stroke-width="2"/>
    <path d="M435.5,45.5 L465.5,45.5 L465.5,75.5 L435.5,75.5 z" fill-opacity="0" stroke="#737370" stroke-width="2"/>
    <path d="M435.5,75.5 L465.5,75.5 L465.5,105.5 L435.5,105.5 z" fill-opacity="0" stroke="#737370" stroke-width="2"/>
    <path d="M435.5,105.5 L465.5,105.5 L465.5,135.5 L435.5,135.5 z" fill-opacity="0" stroke="#737370" stroke-width="2"/>
    <path d="M435.5,135.5 L465.5,135.5 L465.5,165.5 L435.5,165.5 z" fill-opacity="0" stroke="#737370" stroke-width="2"/>
    <path d="M465.5,15.5 L495.5,15.5 L495.5,45.5 L465.5,45.5 z" fill-opacity="0" stroke="#737370" stroke-width="2"/>
    <path d="M465.5,45.5 L495.5,45.5 L495.5,75.5 L465.5,75.5 z" fill-opacity="0" stroke="#737370" stroke-width="2"/>
    <path d="M465.5,75.5 L495.5,75.5 L495.5,105.5 L465.5,105.5 z" fill-opacity="0" stroke="#737370" stroke-width="2"/>
    <path d="M465.5,105.5 L495.5,105.5 L495.5,135.5 L465.5,135.5 z" fill-opacity="0" stroke="#737370" stroke-width="2"/>
    <path d="M465.5,135.5 L495.5,135.5 L495.5,165.5 L465.5,165.5 z" fill-opacity="0" stroke="#737370" stroke-width="2"/>
    <path d="M495.5,15.5 L525.5,15.5 L525.5,45.5 L495.5,45.5 z" fill-opacity="0" stroke="#737370" stroke-width="2"/>
    <path d="M495.5,45.5 L525.5,45.5 L525.5,75.5 L495.5,75.5 z" fill-opacity="0" stroke="#737370" stroke-width="2"/>
    <path d="M495.5,75.5 L525.5,75.5 L525.5,105.5 L495.5,105.5 z" fill-opacity="0" stroke="#737370" stroke-width="2"/>
    <path d="M495.5,105.5 L525.5,105.5 L525.5,135.5 L495.5,135.5 z" fill-opacity="0" stroke="#737370" stroke-width="2"/>
    <path d="M495.5,135.5 L525.5,135.5 L525.5,165.5 L495.5,165.5 z" fill-opacity="0" stroke="#737370" stroke-width="2"/>
    <path d="M525.5,15.5 L555.5,15.5 L555.5,45.5 L525.5,45.5 z" fill-opacity="0" stroke="#737370" stroke-width="2"/>
    <path d="M525.5,45.5 L555.5,45.5 L555.5,75.5 L525.5,75.5 z" fill-opacity="0" stroke="#737370" stroke-width="2"/>
    <path d="M525.5,75.5 L555.5,75.5 L555.5,105.5 L525.5,105.5 z" fill-opacity="0" stroke="#737370" stroke-width="2"/>
    <path d="M525.5,105.5 L555.5,105.5 L555.5,135.5 L525.5,135.5 z" fill-opacity="0" stroke="#737370" stroke-width="2"/>
    <path d="M525.5,135.5 L555.5,135.5 L555.5,165.5 L525.5,165.5 z" fill-opacity="0" stroke="#737370" stroke-width="2"/>
    <path d="M555.5,15.5 L585.5,15.5 L585.5,45.5 L555.5,45.5 z" fill-opacity="0" stroke="#737370" stroke-width="2"/>
    <path d="M555.5,45.5 L585.5,45.5 L585.5,75.5 L555.5,75.5 z" fill-opacity="0" stroke="#737370" stroke-width="2"/>
    <path d="M555.5,75.5 L585.5,75.5 L585.5,105.5 L555.5,105.5 z" fill-opacity="0" stroke="#737370" stroke-width="2"/>
    <path d="M555.5,105.5 L585.5,105.5 L585.5,135.5 L555.5,135.5 z" fill-opacity="0" stroke="#737370" stroke-width="2"/>
    <path d="M555.5,135.5 L585.5,135.5 L585.5,165.5 L555.5,165.5 z" fill-opacity="0" stroke="#737370" stroke-width="2"/>
    <path d="M585.5,15.5 L615.5,15.5 L615.5,45.5 L585.5,45.5 z" fill-opacity="0" stroke="#737370" stroke-width="2"/>
    <path d="M585.5,45.5 L615.5,45.5 L615.5,75.5 L585.5,75.5 z" fill-opacity="0" stroke="#737370" stroke-width="2"/>
    <path d="M585.5,75.5 L615.5,75.5 L615.5,105.5 L585.5,105.5 z" fill-opacity="0" stroke="#737370" stroke-width="2"/>
    <path d="M585.5,105.5 L615.5,105.5 L615.5,135.5 L585.5,135.5 z" fill-opacity="0" stroke="#737370" stroke-width="2"/>
    <path d="M585.5,135.5 L615.5,135.5 L615.5,165.5 L585.5,165.5 z" fill-opacity="0" stroke="#737370" stroke-width="2"/>
    <g>
      <path d="M50.5,20.5 L70.5,20.5 L70.5,40.5 L50.5,40.5 z" fill="#294270"/>
      <path d="M50.5,20.5 L70.5,20.5 L70.5,40.5 L50.5,40.5 z" fill-opacity="0" stroke="#294270" stroke-width="2"/>
    </g>
    <g>
      <path d="M170.5,80.5 L190.5,80.5 L190.5,100.5 L170.5,100.5 z" fill="#294270"/>
      <path d="M170.5,80.5 L190.5,80.5 L190.5,100.5 L170.5,100.5 z" fill-opacity="0" stroke="#294270" stroke-width="2"/>
    </g>
    <g>
      <path d="M200.5,50.5 L220.5,50.5 L220.5,70.5 L200.5,70.5 z" fill="#294270"/>
      <path d="M200.5,50.5 L220.5,50.5 L220.5,70.5 L200.5,70.5 z" fill-opacity="0" stroke="#294270" stroke-width="2"/>
    </g>
    <g>
      <path d="M170.5,20.5 L190.5,20.5 L190.5,40.5 L170.5,40.5 z" fill="#294270"/>
      <path d="M170.5,20.5 L190.5,20.5 L190.5,40.5 L170.5,40.5 z" fill-opacity="0" stroke="#294270" stroke-width="2"/>
    </g>
    <g>
      <path d="M140.5,20.5 L160.5,20.5 L160.5,40.5 L140.5,40.5 z" fill="#294270"/>
      <path d="M140.5,20.5 L160.5,20.5 L160.5,40.5 L140.5,40.5 z" fill-opacity="0" stroke="#294270" stroke-width="2"/>
    </g>
    <g>
      <path d="M20.5,50.5 L40.5,50.5 L40.5,70.5 L20.5,70.5 z" fill="#294270"/>
      <path d="M20.5,50.5 L40.5,50.5 L40.5,70.5 L20.5,70.5 z" fill-opacity="0" stroke="#294270" stroke-width="2"/>
    </g>
    <g>
      <path d="M50.5,140.5 L70.5,140.5 L70.5,160.5 L50.5,160.5 z" fill="#294270"/>
      <path d="M50.5,140.5 L70.5,140.5 L70.5,160.5 L50.5,160.5 z" fill-opacity="0" stroke="#294270" stroke-width="2"/>
    </g>
    <g>
      <path d="M50.5,110.5 L70.5,110.5 L70.5,130.5 L50.5,130.5 z" fill="#294270"/>
      <path d="M50.5,110.5 L70.5,110.5 L70.5,130.5 L50.5,130.5 z" fill-opacity="0" stroke="#294270" stroke-width="2"/>
    </g>
    <g>
      <path d="M50.5,80.5 L70.5,80.5 L70.5,100.5 L50.5,100.5 z" fill="#294270"/>
      <path d="M50.5,80.5 L70.5,80.5 L70.5,100.5 L50.5,100.5 z" fill-opacity="0" stroke="#294270" stroke-width="2"/>
    </g>
    <g>
      <path d="M50.5,50.5 L70.5,50.5 L70.5,70.5 L50.5,70.5 z" fill="#294270"/>
      <path d="M50.5,50.5 L70.5,50.5 L70.5,70.5 L50.5,70.5 z" fill-opacity="0" stroke="#294270" stroke-width="2"/>
    </g>
    <g>
      <path d="M260.5,140.5 L280.5,140.5 L280.5,160.5 L260.5,160.5 z" fill="#294270"/>
      <path d="M260.5,140.5 L280.5,140.5 L280.5,160.5 L260.5,160.5 z" fill-opacity="0" stroke="#294270" stroke-width="2"/>
    </g>
    <g>
      <path d="M290.5,140.5 L310.5,140.5 L310.5,160.5 L290.5,160.5 z" fill="#294270"/>
      <path d="M290.5,140.5 L310.5,140.5 L310.5,160.5 L290.5,160.5 z" fill-opacity="0" stroke="#294270" stroke-width="2"/>
    </g>
    <g>
      <path d="M320.5,110.5 L340.5,110.5 L340.5,130.5 L320.5,130.5 z" fill="#294270"/>
      <path d="M320.5,110.5 L340.5,110.5 L340.5,130.5 L320.5,130.5 z" fill-opacity="0" stroke="#294270" stroke-width="2"/>
    </g>
    <g>
      <path d="M290.5,80.5 L310.5,80.5 L310.5,100.5 L290.5,100.5 z" fill="#294270"/>
      <path d="M290.5,80.5 L310.5,80.5 L310.5,100.5 L290.5,100.5 z" fill-opacity="0" stroke="#294270" stroke-width="2"/>
    </g>
    <g>
      <path d="M320.5,50.5 L340.5,50.5 L340.5,70.5 L320.5,70.5 z" fill="#294270"/>
      <path d="M320.5,50.5 L340.5,50.5 L340.5,70.5 L320.5,70.5 z" fill-opacity="0" stroke="#294270" stroke-width="2"/>
    </g>
    <g>
      <path d="M320.5,20.5 L340.5,20.5 L340.5,40.5 L320.5,40.5 z" fill="#294270"/>
      <path d="M320.5,20.5 L340.5,20.5 L340.5,40.5 L320.5,40.5 z" fill-opacity="0" stroke="#294270" stroke-width="2"/>
    </g>
    <g>
      <path d="M290.5,20.5 L310.5,20.5 L310.5,40.5 L290.5,40.5 z" fill="#294270"/>
      <path d="M290.5,20.5 L310.5,20.5 L310.5,40.5 L290.5,40.5 z" fill-opacity="0" stroke="#294270" stroke-width="2"/>
    </g>
    <g>
      <path d="M260.5,20.5 L280.5,20.5 L280.5,40.5 L260.5,40.5 z" fill="#294270"/>
      <path d="M260.5,20.5 L280.5,20.5 L280.5,40.5 L260.5,40.5 z" fill-opacity="0" stroke="#294270" stroke-width="2"/>
    </g>
    <g>
      <path d="M200.5,20.5 L220.5,20.5 L220.5,40.5 L200.5,40.5 z" fill="#294270"/>
      <path d="M200.5,20.5 L220.5,20.5 L220.5,40.5 L200.5,40.5 z" fill-opacity="0" stroke="#294270" stroke-width="2"/>
    </g>
    <g>
      <path d="M200.5,140.5 L220.5,140.5 L220.5,160.5 L200.5,160.5 z" fill="#294270"/>
      <path d="M200.5,140.5 L220.5,140.5 L220.5,160.5 L200.5,160.5 z" fill-opacity="0" stroke="#294270" stroke-width="2"/>
    </g>
    <g>
      <path d="M170.5,140.5 L190.5,140.5 L190.5,160.5 L170.5,160.5 z" fill="#294270"/>
      <path d="M170.5,140.5 L190.5,140.5 L190.5,160.5 L170.5,160.5 z" fill-opacity="0" stroke="#294270" stroke-width="2"/>
    </g>
    <g>
      <path d="M140.5,140.5 L160.5,140.5 L160.5,160.5 L140.5,160.5 z" fill="#294270"/>
      <path d="M140.5,140.5 L160.5,140.5 L160.5,160.5 L140.5,160.5 z" fill-opacity="0" stroke="#294270" stroke-width="2"/>
    </g>
    <g>
      <path d="M140.5,110.5 L160.5,110.5 L160.5,130.5 L140.5,130.5 z" fill="#294270"/>
      <path d="M140.5,110.5 L160.5,110.5 L160.5,130.5 L140.5,130.5 z" fill-opacity="0" stroke="#294270" stroke-width="2"/>
    </g>
    <g>
      <path d="M440.5,80.5 L460.5,80.5 L460.5,100.5 L440.5,100.5 z" fill="#294270"/>
      <path d="M440.5,80.5 L460.5,80.5 L460.5,100.5 L440.5,100.5 z" fill-opacity="0" stroke="#294270" stroke-width="2"/>
    </g>
    <g>
      <path d="M380.5,80.5 L400.5,80.5 L400.5,100.5 L380.5,100.5 z" fill="#294270"/>
      <path d="M380.5,80.5 L400.5,80.5 L400.5,100.5 L380.5,100.5 z" fill-opacity="0" stroke="#294270" stroke-width="2"/>
    </g>
    <g>
      <path d="M440.5,140.5 L460.5,140.5 L460.5,160.5 L440.5,160.5 z" fill="#294270"/>
      <path d="M440.5,140.5 L460.5,140.5 L460.5,160.5 L440.5,160.5 z" fill-opacity="0" stroke="#294270" stroke-width="2"/>
    </g>
    <g>
      <path d="M440.5,110.5 L460.5,110.5 L460.5,130.5 L440.5,130.5 z" fill="#294270"/>
      <path d="M440.5,110.5 L460.5,110.5 L460.5,130.5 L440.5,130.5 z" fill-opacity="0" stroke="#294270" stroke-width="2"/>
    </g>
    <g>
      <path d="M410.5,80.5 L430.5,80.5 L430.5,100.5 L410.5,100.5 z" fill="#294270"/>
      <path d="M410.5,80.5 L430.5,80.5 L430.5,100.5 L410.5,100.5 z" fill-opacity="0" stroke="#294270" stroke-width="2"/>
    </g>
    <g>
      <path d="M440.5,50.5 L460.5,50.5 L460.5,70.5 L440.5,70.5 z" fill="#294270"/>
      <path d="M440.5,50.5 L460.5,50.5 L460.5,70.5 L440.5,70.5 z" fill-opacity="0" stroke="#294270" stroke-width="2"/>
    </g>
    <g>
      <path d="M440.5,20.5 L460.5,20.5 L460.5,40.5 L440.5,40.5 z" fill="#294270"/>
      <path d="M440.5,20.5 L460.5,20.5 L460.5,40.5 L440.5,40.5 z" fill-opacity="0" stroke="#294270" stroke-width="2"/>
    </g>
    <g>
      <path d="M380.5,50.5 L400.5,50.5 L400.5,70.5 L380.5,70.5 z" fill="#294270"/>
      <path d="M380.5,50.5 L400.5,50.5 L400.5,70.5 L380.5,70.5 z" fill-opacity="0" stroke="#294270" stroke-width="2"/>
    </g>
    <g>
      <path d="M380.5,20.5 L400.5,20.5 L400.5,40.5 L380.5,40.5 z" fill="#294270"/>
      <path d="M380.5,20.5 L400.5,20.5 L400.5,40.5 L380.5,40.5 z" fill-opacity="0" stroke="#294270" stroke-width="2"/>
    </g>
    <g>
      <path d="M500.5,140.5 L520.5,140.5 L520.5,160.5 L500.5,160.5 z" fill="#294270"/>
      <path d="M500.5,140.5 L520.5,140.5 L520.5,160.5 L500.5,160.5 z" fill-opacity="0" stroke="#294270" stroke-width="2"/>
    </g>
    <g>
      <path d="M530.5,140.5 L550.5,140.5 L550.5,160.5 L530.5,160.5 z" fill="#294270"/>
      <path d="M530.5,140.5 L550.5,140.5 L550.5,160.5 L530.5,160.5 z" fill-opacity="0" stroke="#294270" stroke-width="2"/>
    </g>
    <g>
      <path d="M560.5,110.5 L580.5,110.5 L580.5,130.5 L560.5,130.5 z" fill="#294270"/>
      <path d="M560.5,110.5 L580.5,110.5 L580.5,130.5 L560.5,130.5 z" fill-opacity="0" stroke="#294270" stroke-width="2"/>
    </g>
    <g>
      <path d="M530.5,80.5 L550.5,80.5 L550.5,100.5 L530.5,100.5 z" fill="#294270"/>
      <path d="M530.5,80.5 L550.5,80.5 L550.5,100.5 L530.5,100.5 z" fill-opacity="0" stroke="#294270" stroke-width="2"/>
    </g>
    <g>
      <path d="M500.5,50.5 L520.5,50.5 L520.5,70.5 L500.5,70.5 z" fill="#294270"/>
      <path d="M500.5,50.5 L520.5,50.5 L520.5,70.5 L500.5,70.5 z" fill-opacity="0" stroke="#294270" stroke-width="2"/>
    </g>
    <g>
      <path d="M560.5,20.5 L580.5,20.5 L580.5,40.5 L560.5,40.5 z" fill="#294270"/>
      <path d="M560.5,20.5 L580.5,20.5 L580.5,40.5 L560.5,40.5 z" fill-opacity="0" stroke="#294270" stroke-width="2"/>
    </g>
    <g>
      <path d="M530.5,20.5 L550.5,20.5 L550.5,40.5 L530.5,40.5 z" fill="#294270"/>
      <path d="M530.5,20.5 L550.5,20.5 L550.5,40.5 L530.5,40.5 z" fill-opacity="0" stroke="#294270" stroke-width="2"/>
    </g>
    <g>
      <path d="M500.5,20.5 L520.5,20.5 L520.5,40.5 L500.5,40.5 z" fill="#294270"/>
      <path d="M500.5,20.5 L520.5,20.5 L520.5,40.5 L500.5,40.5 z" fill-opacity="0" stroke="#294270" stroke-width="2"/>
    </g>
    <g>
      <path d="M200.5,80.5 L220.5,80.5 L220.5,100.5 L200.5,100.5 z" fill="#294270"/>
      <path d="M200.5,80.5 L220.5,80.5 L220.5,100.5 L200.5,100.5 z" fill-opacity="0" stroke="#294270" stroke-width="2"/>
    </g>
    <g>
      <path d="M500.5,80.5 L520.5,80.5 L520.5,100.5 L500.5,100.5 z" fill="#294270"/>
      <path d="M500.5,80.5 L520.5,80.5 L520.5,100.5 L500.5,100.5 z" fill-opacity="0" stroke="#294270" stroke-width="2"/>
    </g>
    <path d="M615.5,15.5 L645.5,15.5 L645.5,45.5 L615.5,45.5 z" fill-opacity="0" stroke="#737370" stroke-width="2"/>
    <path d="M615.5,45.5 L645.5,45.5 L645.5,75.5 L615.5,75.5 z" fill-opacity="0" stroke="#737370" stroke-width="2"/>
    <path d="M615.5,75.5 L645.5,75.5 L645.5,105.5 L615.5,105.5 z" fill-opacity="0" stroke="#737370" stroke-width="2"/>
    <path d="M615.5,105.5 L645.5,105.5 L645.5,135.5 L615.5,135.5 z" fill-opacity="0" stroke="#737370" stroke-width="2"/>
    <path d="M615.5,135.5 L645.5,135.5 L645.5,165.5 L615.5,165.5 z" fill-opacity="0" stroke="#737370" stroke-width="2"/>
    <path d="M645.5,15.5 L675.5,15.5 L675.5,45.5 L645.5,45.5 z" fill-opacity="0" stroke="#737370" stroke-width="2"/>
    <path d="M645.5,45.5 L675.5,45.5 L675.5,75.5 L645.5,75.5 z" fill-opacity="0" stroke="#737370" stroke-width="2"/>
    <path d="M645.5,75.5 L675.5,75.5 L675.5,105.5 L645.5,105.5 z" fill-opacity="0" stroke="#737370" stroke-width="2"/>
    <path d="M645.5,105.5 L675.5,105.5 L675.5,135.5 L645.5,135.5 z" fill-opacity="0" stroke="#737370" stroke-width="2"/>
    <path d="M645.5,135.5 L675.5,135.5 L675.5,165.5 L645.5,165.5 z" fill-opacity="0" stroke="#737370" stroke-width="2"/>
    <path d="M675.5,15.5 L705.5,15.5 L705.5,45.5 L675.5,45.5 z" fill-opacity="0" stroke="#737370" stroke-width="2"/>
    <path d="M675.5,45.5 L705.5,45.5 L705.5,75.5 L675.5,75.5 z" fill-opacity="0" stroke="#737370" stroke-width="2"/>
    <path d="M675.5,75.5 L705.5,75.5 L705.5,105.5 L675.5,105.5 z" fill-opacity="0" stroke="#737370" stroke-width="2"/>
    <path d="M675.5,105.5 L705.5,105.5 L705.5,135.5 L675.5,135.5 z" fill-opacity="0" stroke="#737370" stroke-width="2"/>
    <path d="M675.5,135.5 L705.5,135.5 L705.5,165.5 L675.5,165.5 z" fill-opacity="0" stroke="#737370" stroke-width="2"/>
    <path d="M705.5,15.5 L735.5,15.5 L735.5,45.5 L705.5,45.5 z" fill-opacity="0" stroke="#737370" stroke-width="2"/>
    <path d="M705.5,45.5 L735.5,45.5 L735.5,75.5 L705.5,75.5 z" fill-opacity="0" stroke="#737370" stroke-width="2"/>
    <path d="M705.5,75.5 L735.5,75.5 L735.5,105.5 L705.5,105.5 z" fill-opacity="0" stroke="#737370" stroke-width="2"/>
    <path d="M705.5,105.5 L735.5,105.5 L735.5,135.5 L705.5,135.5 z" fill-opacity="0" stroke="#737370" stroke-width="2"/>
    <path d="M705.5,135.5 L735.5,135.5 L735.5,165.5 L705.5,165.5 z" fill-opacity="0" stroke="#737370" stroke-width="2"/>
    <path d="M735.5,15.5 L765.5,15.5 L765.5,45.5 L735.5,45.5 z" fill-opacity="0" stroke="#737370" stroke-width="2"/>
    <path d="M735.5,45.5 L765.5,45.5 L765.5,75.5 L735.5,75.5 z" fill-opacity="0" stroke="#737370" stroke-width="2"/>
    <path d="M735.5,75.5 L765.5,75.5 L765.5,105.5 L735.5,105.5 z" fill-opacity="0" stroke="#737370" stroke-width="2"/>
    <path d="M735.5,105.5 L765.5,105.5 L765.5,135.5 L735.5,135.5 z" fill-opacity="0" stroke="#737370" stroke-width="2"/>
    <path d="M735.5,135.5 L765.5,135.5 L765.5,165.5 L735.5,165.5 z" fill-opacity="0" stroke="#737370" stroke-width="2"/>
    <path d="M765.5,15.5 L795.5,15.5 L795.5,45.5 L765.5,45.5 z" fill-opacity="0" stroke="#737370" stroke-width="2"/>
    <path d="M765.5,45.5 L795.5,45.5 L795.5,75.5 L765.5,75.5 z" fill-opacity="0" stroke="#737370" stroke-width="2"/>
    <path d="M765.5,75.5 L795.5,75.5 L795.5,105.5 L765.5,105.5 z" fill-opacity="0" stroke="#737370" stroke-width="2"/>
    <path d="M765.5,105.5 L795.5,105.5 L795.5,135.5 L765.5,135.5 z" fill-opacity="0" stroke="#737370" stroke-width="2"/>
    <path d="M765.5,135.5 L795.5,135.5 L795.5,165.5 L765.5,165.5 z" fill-opacity="0" stroke="#737370" stroke-width="2"/>
    <path d="M795.5,15.5 L825.5,15.5 L825.5,45.5 L795.5,45.5 z" fill-opacity="0" stroke="#737370" stroke-width="2"/>
    <path d="M795.5,45.5 L825.5,45.5 L825.5,75.5 L795.5,75.5 z" fill-opacity="0" stroke="#737370" stroke-width="2"/>
    <path d="M795.5,75.5 L825.5,75.5 L825.5,105.5 L795.5,105.5 z" fill-opacity="0" stroke="#737370" stroke-width="2"/>
    <path d="M795.5,105.5 L825.5,105.5 L825.5,135.5 L795.5,135.5 z" fill-opacity="0" stroke="#737370" stroke-width="2"/>
    <path d="M795.5,135.5 L825.5,135.5 L825.5,165.5 L795.5,165.5 z" fill-opacity="0" stroke="#737370" stroke-width="2"/>
    <path d="M825.5,15.5 L855.5,15.5 L855.5,45.5 L825.5,45.5 z" fill-opacity="0" stroke="#737370" stroke-width="2"/>
    <path d="M825.5,45.5 L855.5,45.5 L855.5,75.5 L825.5,75.5 z" fill-opacity="0" stroke="#737370" stroke-width="2"/>
    <path d="M825.5,75.5 L855.5,75.5 L855.5,105.5 L825.5,105.5 z" fill-opacity="0" stroke="#737370" stroke-width="2"/>
    <path d="M825.5,105.5 L855.5,105.5 L855.5,135.5 L825.5,135.5 z" fill-opacity="0" stroke="#737370" stroke-width="2"/>
    <path d="M825.5,135.5 L855.5,135.5 L855.5,165.5 L825.5,165.5 z" fill-opacity="0" stroke="#737370" stroke-width="2"/>
    <path d="M855.5,15.5 L885.5,15.5 L885.5,45.5 L855.5,45.5 z" fill-opacity="0" stroke="#737370" stroke-width="2"/>
    <path d="M855.5,45.5 L885.5,45.5 L885.5,75.5 L855.5,75.5 z" fill-opacity="0" stroke="#737370" stroke-width="2"/>
    <path d="M855.5,75.5 L885.5,75.5 L885.5,105.5 L855.5,105.5 z" fill-opacity="0" stroke="#737370" stroke-width="2"/>
    <path d="M855.5,105.5 L885.5,105.5 L885.5,135.5 L855.5,135.5 z" fill-opacity="0" stroke="#737370" stroke-width="2"/>
    <path d="M855.5,135.5 L885.5,135.5 L885.5,165.5 L855.5,165.5 z" fill-opacity="0" stroke="#737370" stroke-width="2"/>
    <path d="M885.5,15.5 L915.5,15.5 L915.5,45.5 L885.5,45.5 z" fill-opacity="0" stroke="#737370" stroke-width="2"/>
    <path d="M885.5,45.5 L915.5,45.5 L915.5,75.5 L885.5,75.5 z" fill-opacity="0" stroke="#737370" stroke-width="2"/>
    <path d="M885.5,75.5 L915.5,75.5 L915.5,105.5 L885.5,105.5 z" fill-opacity="0" stroke="#737370" stroke-width="2"/>
    <path d="M885.5,105.5 L915.5,105.5 L915.5,135.5 L885.5,135.5 z" fill-opacity="0" stroke="#737370" stroke-width="2"/>
    <path d="M885.5,135.5 L915.5,135.5 L915.5,165.5 L885.5,165.5 z" fill-opacity="0" stroke="#737370" stroke-width="2"/>
    <path d="M915.5,15.5 L945.5,15.5 L945.5,45.5 L915.5,45.5 z" fill-opacity="0" stroke="#737370" stroke-width="2"/>
    <path d="M915.5,45.5 L945.5,45.5 L945.5,75.5 L915.5,75.5 z" fill-opacity="0" stroke="#737370" stroke-width="2"/>
    <path d="M915.5,75.5 L945.5,75.5 L945.5,105.5 L915.5,105.5 z" fill-opacity="0" stroke="#737370" stroke-width="2"/>
    <path d="M915.5,105.5 L945.5,105.5 L945.5,135.5 L915.5,135.5 z" fill-opacity="0" stroke="#737370" stroke-width="2"/>
    <path d="M915.5,135.5 L945.5,135.5 L945.5,165.5 L915.5,165.5 z" fill-opacity="0" stroke="#737370" stroke-width="2"/>
    <path d="M945.5,15.5 L975.5,15.5 L975.5,45.5 L945.5,45.5 z" fill-opacity="0" stroke="#737370" stroke-width="2"/>
    <path d="M945.5,45.5 L975.5,45.5 L975.5,75.5 L945.5,75.5 z" fill-opacity="0" stroke="#737370" stroke-width="2"/>
    <path d="M945.5,75.5 L975.5,75.5 L975.5,105.5 L945.5,105.5 z" fill-opacity="0" stroke="#737370" stroke-width="2"/>
    <path d="M945.5,105.5 L975.5,105.5 L975.5,135.5 L945.5,135.5 z" fill-opacity="0" stroke="#737370" stroke-width="2"/>
    <path d="M945.5,135.5 L975.5,135.5 L975.5,165.5 L945.5,165.5 z" fill-opacity="0" stroke="#737370" stroke-width="2"/>
    <path d="M975.5,15.5 L1005.5,15.5 L1005.5,45.5 L975.5,45.5 z" fill-opacity="0" stroke="#737370" stroke-width="2"/>
    <path d="M975.5,45.5 L1005.5,45.5 L1005.5,75.5 L975.5,75.5 z" fill-opacity="0" stroke="#737370" stroke-width="2"/>
    <path d="M975.5,75.5 L1005.5,75.5 L1005.5,105.5 L975.5,105.5 z" fill-opacity="0" stroke="#737370" stroke-width="2"/>
    <path d="M975.5,105.5 L1005.5,105.5 L1005.5,135.5 L975.5,135.5 z" fill-opacity="0" stroke="#737370" stroke-width="2"/>
    <path d="M975.5,135.5 L1005.5,135.5 L1005.5,165.5 L975.5,165.5 z" fill-opacity="0" stroke="#737370" stroke-width="2"/>
    <path d="M1005.5,15.5 L1035.5,15.5 L1035.5,45.5 L1005.5,45.5 z" fill-opacity="0" stroke="#737370" stroke-width="2"/>
    <path d="M1005.5,45.5 L1035.5,45.5 L1035.5,75.5 L1005.5,75.5 z" fill-opacity="0" stroke="#737370" stroke-width="2"/>
    <path d="M1005.5,75.5 L1035.5,75.5 L1035.5,105.5 L1005.5,105.5 z" fill-opacity="0" stroke="#737370" stroke-width="2"/>
    <path d="M1005.5,105.5 L1035.5,105.5 L1035.5,135.5 L1005.5,135.5 z" fill-opacity="0" stroke="#737370" stroke-width="2"/>
    <path d="M1005.5,135.5 L1035.5,135.5 L1035.5,165.5 L1005.5,165.5 z" fill-opacity="0" stroke="#737370" stroke-width="2"/>
    <path d="M1035.5,15.5 L1065.5,15.5 L1065.5,45.5 L1035.5,45.5 z" fill-opacity="0" stroke="#737370" stroke-width="2"/>
    <path d="M1035.5,45.5 L1065.5,45.5 L1065.5,75.5 L1035.5,75.5 z" fill-opacity="0" stroke="#737370" stroke-width="2"/>
    <path d="M1035.5,75.5 L1065.5,75.5 L1065.5,105.5 L1035.5,105.5 z" fill-opacity="0" stroke="#737370" stroke-width="2"/>
    <path d="M1035.5,105.5 L1065.5,105.5 L1065.5,135.5 L1035.5,135.5 z" fill-opacity="0" stroke="#737370" stroke-width="2"/>
    <path d="M1035.5,135.5 L1065.5,135.5 L1065.5,165.5 L1035.5,165.5 z" fill-opacity="0" stroke="#737370" stroke-width="2"/>
    <path d="M1065.5,15.5 L1095.5,15.5 L1095.5,45.5 L1065.5,45.5 z" fill-opacity="0" stroke="#737370" stroke-width="2"/>
    <path d="M1065.5,45.5 L1095.5,45.5 L1095.5,75.5 L1065.5,75.5 z" fill-opacity="0" stroke="#737370" stroke-width="2"/>
    <path d="M1065.5,75.5 L1095.5,75.5 L1095.5,105.5 L1065.5,105.5 z" fill-opacity="0" stroke="#737370" stroke-width="2"/>
    <path d="M1065.5,105.5 L1095.5,105.5 L1095.5,135.5 L1065.5,135.5 z" fill-opacity="0" stroke="#737370" stroke-width="2"/>
    <path d="M1065.5,135.5 L1095.5,135.5 L1095.5,165.5 L1065.5,165.5 z" fill-opacity="0" stroke="#737370" stroke-width="2"/>
    <path d="M1095.5,15.5 L1125.5,15.5 L1125.5,45.5 L1095.5,45.5 z" fill-opacity="0" stroke="#737370" stroke-width="2"/>
    <path d="M1095.5,45.5 L1125.5,45.5 L1125.5,75.5 L1095.5,75.5 z" fill-opacity="0" stroke="#737370" stroke-width="2"/>
    <path d="M1095.5,75.5 L1125.5,75.5 L1125.5,105.5 L1095.5,105.5 z" fill-opacity="0" stroke="#737370" stroke-width="2"/>
    <path d="M1095.5,105.5 L1125.5,105.5 L1125.5,135.5 L1095.5,135.5 z" fill-opacity="0" stroke="#737370" stroke-width="2"/>
    <path d="M1095.5,135.5 L1125.5,135.5 L1125.5,165.5 L1095.5,165.5 z" fill-opacity="0" stroke="#737370" stroke-width="2"/>
    <path d="M1125.5,15.5 L1155.5,15.5 L1155.5,45.5 L1125.5,45.5 z" fill-opacity="0" stroke="#737370" stroke-width="2"/>
    <path d="M1125.5,45.5 L1155.5,45.5 L1155.5,75.5 L1125.5,75.5 z" fill-opacity="0" stroke="#737370" stroke-width="2"/>
    <path d="M1125.5,75.5 L1155.5,75.5 L1155.5,105.5 L1125.5,105.5 z" fill-opacity="0" stroke="#737370" stroke-width="2"/>
    <path d="M1125.5,105.5 L1155.5,105.5 L1155.5,135.5 L1125.5,135.5 z" fill-opacity="0" stroke="#737370" stroke-width="2"/>
    <path d="M1125.5,135.5 L1155.5,135.5 L1155.5,165.5 L1125.5,165.5 z" fill-opacity="0" stroke="#737370" stroke-width="2"/>
    <path d="M1155.5,15.5 L1185.5,15.5 L1185.5,45.5 L1155.5,45.5 z" fill-opacity="0" stroke="#737370" stroke-width="2"/>
    <path d="M1155.5,45.5 L1185.5,45.5 L1185.5,75.5 L1155.5,75.5 z" fill-opacity="0" stroke="#737370" stroke-width="2"/>
    <path d="M1155.5,75.5 L1185.5,75.5 L1185.5,105.5 L1155.5,105.5 z" fill-opacity="0" stroke="#737370" stroke-width="2"/>
    <path d="M1155.5,105.5 L1185.5,105.5 L1185.5,135.5 L1155.5,135.5 z" fill-opacity="0" stroke="#737370" stroke-width="2"/>
    <path d="M1155.5,135.5 L1185.5,135.5 L1185.5,165.5 L1155.5,165.5 z" fill-opacity="0" stroke="#737370" stroke-width="2"/>
    <g>
      <path d="M650.5,20.5 L670.5,20.5 L670.5,40.5 L650.5,40.5 z" fill="#294270"/>
      <path d="M650.5,20.5 L670.5,20.5 L670.5,40.5 L650.5,40.5 z" fill-opacity="0" stroke="#294270" stroke-width="2"/>
    </g>
    <g>
      <path d="M680.5,80.5 L700.5,80.5 L700.5,100.5 L680.5,100.5 z" fill="#294270"/>
      <path d="M680.5,80.5 L700.5,80.5 L700.5,100.5 L680.5,100.5 z" fill-opacity="0" stroke="#294270" stroke-width="2"/>
    </g>
    <g>
      <path d="M800.5,50.5 L820.5,50.5 L820.5,70.5 L800.5,70.5 z" fill="#294270"/>
      <path d="M800.5,50.5 L820.5,50.5 L820.5,70.5 L800.5,70.5 z" fill-opacity="0" stroke="#294270" stroke-width="2"/>
    </g>
    <g>
      <path d="M770.5,20.5 L790.5,20.5 L790.5,40.5 L770.5,40.5 z" fill="#294270"/>
      <path d="M770.5,20.5 L790.5,20.5 L790.5,40.5 L770.5,40.5 z" fill-opacity="0" stroke="#294270" stroke-width="2"/>
    </g>
    <g>
      <path d="M740.5,20.5 L760.5,20.5 L760.5,40.5 L740.5,40.5 z" fill="#294270"/>
      <path d="M740.5,20.5 L760.5,20.5 L760.5,40.5 L740.5,40.5 z" fill-opacity="0" stroke="#294270" stroke-width="2"/>
    </g>
    <g>
      <path d="M620.5,50.5 L640.5,50.5 L640.5,70.5 L620.5,70.5 z" fill="#294270"/>
      <path d="M620.5,50.5 L640.5,50.5 L640.5,70.5 L620.5,70.5 z" fill-opacity="0" stroke="#294270" stroke-width="2"/>
    </g>
    <g>
      <path d="M650.5,140.5 L670.5,140.5 L670.5,160.5 L650.5,160.5 z" fill="#294270"/>
      <path d="M650.5,140.5 L670.5,140.5 L670.5,160.5 L650.5,160.5 z" fill-opacity="0" stroke="#294270" stroke-width="2"/>
    </g>
    <g>
      <path d="M620.5,80.5 L640.5,80.5 L640.5,100.5 L620.5,100.5 z" fill="#294270"/>
      <path d="M620.5,80.5 L640.5,80.5 L640.5,100.5 L620.5,100.5 z" fill-opacity="0" stroke="#294270" stroke-width="2"/>
    </g>
    <g>
      <path d="M650.5,80.5 L670.5,80.5 L670.5,100.5 L650.5,100.5 z" fill="#294270"/>
      <path d="M650.5,80.5 L670.5,80.5 L670.5,100.5 L650.5,100.5 z" fill-opacity="0" stroke="#294270" stroke-width="2"/>
    </g>
    <g>
      <path d="M680.5,20.5 L700.5,20.5 L700.5,40.5 L680.5,40.5 z" fill="#294270"/>
      <path d="M680.5,20.5 L700.5,20.5 L700.5,40.5 L680.5,40.5 z" fill-opacity="0" stroke="#294270" stroke-width="2"/>
    </g>
    <g>
      <path d="M620.5,110.5 L640.5,110.5 L640.5,130.5 L620.5,130.5 z" fill="#294270"/>
      <path d="M620.5,110.5 L640.5,110.5 L640.5,130.5 L620.5,130.5 z" fill-opacity="0" stroke="#294270" stroke-width="2"/>
    </g>
    <g>
      <path d="M920.5,80.5 L940.5,80.5 L940.5,100.5 L920.5,100.5 z" fill="#294270"/>
      <path d="M920.5,80.5 L940.5,80.5 L940.5,100.5 L920.5,100.5 z" fill-opacity="0" stroke="#294270" stroke-width="2"/>
    </g>
    <g>
      <path d="M860.5,140.5 L880.5,140.5 L880.5,160.5 L860.5,160.5 z" fill="#294270"/>
      <path d="M860.5,140.5 L880.5,140.5 L880.5,160.5 L860.5,160.5 z" fill-opacity="0" stroke="#294270" stroke-width="2"/>
    </g>
    <g>
      <path d="M890.5,140.5 L910.5,140.5 L910.5,160.5 L890.5,160.5 z" fill="#294270"/>
      <path d="M890.5,140.5 L910.5,140.5 L910.5,160.5 L890.5,160.5 z" fill-opacity="0" stroke="#294270" stroke-width="2"/>
    </g>
    <g>
      <path d="M920.5,140.5 L940.5,140.5 L940.5,160.5 L920.5,160.5 z" fill="#294270"/>
      <path d="M920.5,140.5 L940.5,140.5 L940.5,160.5 L920.5,160.5 z" fill-opacity="0" stroke="#294270" stroke-width="2"/>
    </g>
    <g>
      <path d="M920.5,110.5 L940.5,110.5 L940.5,130.5 L920.5,130.5 z" fill="#294270"/>
      <path d="M920.5,110.5 L940.5,110.5 L940.5,130.5 L920.5,130.5 z" fill-opacity="0" stroke="#294270" stroke-width="2"/>
    </g>
    <g>
      <path d="M890.5,80.5 L910.5,80.5 L910.5,100.5 L890.5,100.5 z" fill="#294270"/>
      <path d="M890.5,80.5 L910.5,80.5 L910.5,100.5 L890.5,100.5 z" fill-opacity="0" stroke="#294270" stroke-width="2"/>
    </g>
    <g>
      <path d="M920.5,50.5 L940.5,50.5 L940.5,70.5 L920.5,70.5 z" fill="#294270"/>
      <path d="M920.5,50.5 L940.5,50.5 L940.5,70.5 L920.5,70.5 z" fill-opacity="0" stroke="#294270" stroke-width="2"/>
    </g>
    <g>
      <path d="M920.5,20.5 L940.5,20.5 L940.5,40.5 L920.5,40.5 z" fill="#294270"/>
      <path d="M920.5,20.5 L940.5,20.5 L940.5,40.5 L920.5,40.5 z" fill-opacity="0" stroke="#294270" stroke-width="2"/>
    </g>
    <g>
      <path d="M890.5,20.5 L910.5,20.5 L910.5,40.5 L890.5,40.5 z" fill="#294270"/>
      <path d="M890.5,20.5 L910.5,20.5 L910.5,40.5 L890.5,40.5 z" fill-opacity="0" stroke="#294270" stroke-width="2"/>
    </g>
    <g>
      <path d="M860.5,20.5 L880.5,20.5 L880.5,40.5 L860.5,40.5 z" fill="#294270"/>
      <path d="M860.5,20.5 L880.5,20.5 L880.5,40.5 L860.5,40.5 z" fill-opacity="0" stroke="#294270" stroke-width="2"/>
    </g>
    <g>
      <path d="M800.5,20.5 L820.5,20.5 L820.5,40.5 L800.5,40.5 z" fill="#294270"/>
      <path d="M800.5,20.5 L820.5,20.5 L820.5,40.5 L800.5,40.5 z" fill-opacity="0" stroke="#294270" stroke-width="2"/>
    </g>
    <g>
      <path d="M740.5,140.5 L760.5,140.5 L760.5,160.5 L740.5,160.5 z" fill="#294270"/>
      <path d="M740.5,140.5 L760.5,140.5 L760.5,160.5 L740.5,160.5 z" fill-opacity="0" stroke="#294270" stroke-width="2"/>
    </g>
    <g>
      <path d="M680.5,110.5 L700.5,110.5 L700.5,130.5 L680.5,130.5 z" fill="#294270"/>
      <path d="M680.5,110.5 L700.5,110.5 L700.5,130.5 L680.5,130.5 z" fill-opacity="0" stroke="#294270" stroke-width="2"/>
    </g>
    <g>
      <path d="M680.5,140.5 L700.5,140.5 L700.5,160.5 L680.5,160.5 z" fill="#294270"/>
      <path d="M680.5,140.5 L700.5,140.5 L700.5,160.5 L680.5,160.5 z" fill-opacity="0" stroke="#294270" stroke-width="2"/>
    </g>
    <g>
      <path d="M1040.5,80.5 L1060.5,80.5 L1060.5,100.5 L1040.5,100.5 z" fill="#294270"/>
      <path d="M1040.5,80.5 L1060.5,80.5 L1060.5,100.5 L1040.5,100.5 z" fill-opacity="0" stroke="#294270" stroke-width="2"/>
    </g>
    <g>
      <path d="M980.5,80.5 L1000.5,80.5 L1000.5,100.5 L980.5,100.5 z" fill="#294270"/>
      <path d="M980.5,80.5 L1000.5,80.5 L1000.5,100.5 L980.5,100.5 z" fill-opacity="0" stroke="#294270" stroke-width="2"/>
    </g>
    <g>
      <path d="M1010.5,140.5 L1030.5,140.5 L1030.5,160.5 L1010.5,160.5 z" fill="#294270"/>
      <path d="M1010.5,140.5 L1030.5,140.5 L1030.5,160.5 L1010.5,160.5 z" fill-opacity="0" stroke="#294270" stroke-width="2"/>
    </g>
    <g>
      <path d="M1040.5,110.5 L1060.5,110.5 L1060.5,130.5 L1040.5,130.5 z" fill="#294270"/>
      <path d="M1040.5,110.5 L1060.5,110.5 L1060.5,130.5 L1040.5,130.5 z" fill-opacity="0" stroke="#294270" stroke-width="2"/>
    </g>
    <g>
      <path d="M1010.5,80.5 L1030.5,80.5 L1030.5,100.5 L1010.5,100.5 z" fill="#294270"/>
      <path d="M1010.5,80.5 L1030.5,80.5 L1030.5,100.5 L1010.5,100.5 z" fill-opacity="0" stroke="#294270" stroke-width="2"/>
    </g>
    <g>
      <path d="M1040.5,50.5 L1060.5,50.5 L1060.5,70.5 L1040.5,70.5 z" fill="#294270"/>
      <path d="M1040.5,50.5 L1060.5,50.5 L1060.5,70.5 L1040.5,70.5 z" fill-opacity="0" stroke="#294270" stroke-width="2"/>
    </g>
    <g>
      <path d="M1040.5,20.5 L1060.5,20.5 L1060.5,40.5 L1040.5,40.5 z" fill="#294270"/>
      <path d="M1040.5,20.5 L1060.5,20.5 L1060.5,40.5 L1040.5,40.5 z" fill-opacity="0" stroke="#294270" stroke-width="2"/>
    </g>
    <g>
      <path d="M980.5,50.5 L1000.5,50.5 L1000.5,70.5 L980.5,70.5 z" fill="#294270"/>
      <path d="M980.5,50.5 L1000.5,50.5 L1000.5,70.5 L980.5,70.5 z" fill-opacity="0" stroke="#294270" stroke-width="2"/>
    </g>
    <g>
      <path d="M1160.5,140.5 L1180.5,140.5 L1180.5,160.5 L1160.5,160.5 z" fill="#294270"/>
      <path d="M1160.5,140.5 L1180.5,140.5 L1180.5,160.5 L1160.5,160.5 z" fill-opacity="0" stroke="#294270" stroke-width="2"/>
    </g>
    <g>
      <path d="M1130.5,140.5 L1150.5,140.5 L1150.5,160.5 L1130.5,160.5 z" fill="#294270"/>
      <path d="M1130.5,140.5 L1150.5,140.5 L1150.5,160.5 L1130.5,160.5 z" fill-opacity="0" stroke="#294270" stroke-width="2"/>
    </g>
    <g>
      <path d="M1160.5,110.5 L1180.5,110.5 L1180.5,130.5 L1160.5,130.5 z" fill="#294270"/>
      <path d="M1160.5,110.5 L1180.5,110.5 L1180.5,130.5 L1160.5,130.5 z" fill-opacity="0" stroke="#294270" stroke-width="2"/>
    </g>
    <g>
      <path d="M1160.5,50.5 L1180.5,50.5 L1180.5,70.5 L1160.5,70.5 z" fill="#294270"/>
      <path d="M1160.5,50.5 L1180.5,50.5 L1180.5,70.5 L1160.5,70.5 z" fill-opacity="0" stroke="#294270" stroke-width="2"/>
    </g>
    <g>
      <path d="M1100.5,50.5 L1120.5,50.5 L1120.5,70.5 L1100.5,70.5 z" fill="#294270"/>
      <path d="M1100.5,50.5 L1120.5,50.5 L1120.5,70.5 L1100.5,70.5 z" fill-opacity="0" stroke="#294270" stroke-width="2"/>
    </g>
    <g>
      <path d="M1100.5,20.5 L1120.5,20.5 L1120.5,40.5 L1100.5,40.5 z" fill="#294270"/>
      <path d="M1100.5,20.5 L1120.5,20.5 L1120.5,40.5 L1100.5,40.5 z" fill-opacity="0" stroke="#294270" stroke-width="2"/>
    </g>
    <g>
      <path d="M1130.5,20.5 L1150.5,20.5 L1150.5,40.5 L1130.5,40.5 z" fill="#294270"/>
      <path d="M1130.5,20.5 L1150.5,20.5 L1150.5,40.5 L1130.5,40.5 z" fill-opacity="0" stroke="#294270" stroke-width="2"/>
    </g>
    <g>
      <path d="M770.5,80.5 L790.5,80.5 L790.5,100.5 L770.5,100.5 z" fill="#294270"/>
      <path d="M770.5,80.5 L790.5,80.5 L790.5,100.5 L770.5,100.5 z" fill-opacity="0" stroke="#294270" stroke-width="2"/>
    </g>
    <g>
      <path d="M1160.5,80.5 L1180.5,80.5 L1180.5,100.5 L1160.5,100.5 z" fill="#294270"/>
      <path d="M1160.5,80.5 L1180.5,80.5 L1180.5,100.5 L1160.5,100.5 z" fill-opacity="0" stroke="#294270" stroke-width="2"/>
    </g>
    <g>
      <path d="M1100.5,80.5 L1120.5,80.5 L1120.5,100.5 L1100.5,100.5 z" fill="#294270"/>
      <path d="M1100.5,80.5 L1120.5,80.5 L1120.5,100.5 L1100.5,100.5 z" fill-opacity="0" stroke="#294270" stroke-width="2"/>
    </g>
    <g>
      <path d="M740.5,110.5 L760.5,110.5 L760.5,130.5 L740.5,130.5 z" fill="#294270"/>
      <path d="M740.5,110.5 L760.5,110.5 L760.5,130.5 L740.5,130.5 z" fill-opacity="0" stroke="#294270" stroke-width="2"/>
    </g>
    <g>
      <path d="M860.5,50.5 L880.5,50.5 L880.5,70.5 L860.5,70.5 z" fill="#294270"/>
      <path d="M860.5,50.5 L880.5,50.5 L880.5,70.5 L860.5,70.5 z" fill-opacity="0" stroke="#294270" stroke-width="2"/>
    </g>
    <g>
      <path d="M860.5,80.5 L880.5,80.5 L880.5,100.5 L860.5,100.5 z" fill="#294270"/>
      <path d="M860.5,80.5 L880.5,80.5 L880.5,100.5 L860.5,100.5 z" fill-opacity="0" stroke="#294270" stroke-width="2"/>
    </g>
    <g>
      <path d="M860.5,110.5 L880.5,110.5 L880.5,130.5 L860.5,130.5 z" fill="#294270"/>
      <path d="M860.5,110.5 L880.5,110.5 L880.5,130.5 L860.5,130.5 z" fill-opacity="0" stroke="#294270" stroke-width="2"/>
    </g>
    <g>
      <path d="M1010.5,20.5 L1030.5,20.5 L1030.5,40.5 L1010.5,40.5 z" fill="#294270"/>
      <path d="M1010.5,20.5 L1030.5,20.5 L1030.5,40.5 L1010.5,40.5 z" fill-opacity="0" stroke="#294270" stroke-width="2"/>
    </g>
    <g>
      <path d="M980.5,140.5 L1000.5,140.5 L1000.5,160.5 L980.5,160.5 z" fill="#294270"/>
      <path d="M980.5,140.5 L1000.5,140.5 L1000.5,160.5 L980.5,160.5 z" fill-opacity="0" stroke="#294270" stroke-width="2"/>
    </g>
    <g>
      <path d="M1100.5,110.5 L1120.5,110.5 L1120.5,130.5 L1100.5,130.5 z" fill="#294270"/>
      <path d="M1100.5,110.5 L1120.5,110.5 L1120.5,130.5 L1100.5,130.5 z" fill-opacity="0" stroke="#294270" stroke-width="2"/>
    </g>
    <g>
      <path d="M320.5,140.5 L340.5,140.5 L340.5,160.5 L320.5,160.5 z" fill="#294270"/>
      <path d="M320.5,140.5 L340.5,140.5 L340.5,160.5 L320.5,160.5 z" fill-opacity="0" stroke="#294270" stroke-width="2"/>
    </g>
  </g>
  <defs/>
</svg>
